<!--?xml version="1.0" encoding="utf-8"?-->
<!-- Generator: Adobe Illustrator 18.1.1, SVG Export Plug-In . SVG Version: 6.00 Build 0)  -->

<svg version="1.1" id="_x32_" xmlns="http://www.w3.org/2000/svg" xmlns:xlink="http://www.w3.org/1999/xlink" x="0px" y="0px" viewBox="0 0 512 512" style="width: 256px; height: 256px; opacity: 1;" xml:space="preserve">
<style type="text/css">
	.st0{fill:#4B4B4B;}
</style>
<g>
	<path class="st0" d="M494.364,133.438c-11.525-15.738-29.351-25.678-48.804-27.219L126.243,80.918l-3.129-17.749
		c-5.253-29.676-28.858-52.657-58.672-57.066L24.59,0.187c-9.5-1.396-18.34,5.172-19.752,14.658
		c-1.409,9.512,5.158,18.356,14.657,19.761v-0.008l39.861,5.907c14.97,2.218,26.868,13.785,29.497,28.71l54.013,306.134
		c5.073,28.735,30.027,49.669,59.207,49.678h221.97c9.599,0,17.39-7.792,17.39-17.39c0-9.607-7.791-17.398-17.39-17.398h-221.97
		c-12.282,0.009-22.814-8.836-24.946-20.934l-5-28.349h244.879c31.243,0,58.35-21.55,65.372-52.005l23.254-100.767
		c1.148-5,1.721-10.06,1.721-15.086C507.352,158.962,502.875,145.04,494.364,133.438z M296.499,229.855v82.118h-72.469v-82.118
		H296.499z M224.031,206.652v-88.899l72.469,5.746v83.154H224.031z M319.685,229.855h72.469v82.118h-72.469V229.855z
		 M319.685,206.652V125.33l72.469,5.745v75.577H319.685z M200.839,115.911v90.74h-52.408l-16.983-96.237L200.839,115.911z
		 M152.524,229.855h48.315v82.118h-33.828L152.524,229.855z M454.131,282.444c-3.981,17.278-19.385,29.53-37.125,29.53h-1.653
		v-82.118h50.91L454.131,282.444z M477.385,181.668l-6.969,30.207v-5.223h-55.063v-73.736l27.921,2.208
		c11.045,0.866,21.166,6.516,27.707,15.447c4.837,6.592,7.388,14.495,7.388,22.526C478.369,175.949,478.027,178.809,477.385,181.668
		z" style="fill: rgb(75, 75, 75);"></path>
	<path class="st0" d="M215.344,450.165c-17.077,0-30.909,13.853-30.909,30.926c0,17.073,13.832,30.909,30.909,30.909
		c17.077,0,30.926-13.836,30.926-30.909C246.27,464.018,232.421,450.165,215.344,450.165z" style="fill: rgb(75, 75, 75);"></path>
	<path class="st0" d="M381.537,450.165c-17.073,0-30.914,13.853-30.914,30.926c0,17.073,13.84,30.909,30.914,30.909
		c17.077,0,30.922-13.836,30.922-30.909C412.459,464.018,398.615,450.165,381.537,450.165z" style="fill: rgb(75, 75, 75);"></path>
</g>
</svg>
